<?xml version="1.0" encoding="UTF-8" standalone="no"?>
<svg
   width="323.57031"
   height="293.80612"
   viewBox="0 0 323.57031 293.80613"
   version="1.1"
   id="svg90"
   sodipodi:docname="icon.svg"
   inkscape:version="1.4.4 (dcaf3e7d9e, 2026-05-05)"
   xmlns:inkscape="http://www.inkscape.org/namespaces/inkscape"
   xmlns:sodipodi="http://sodipodi.sourceforge.net/DTD/sodipodi-0.dtd"
   xmlns="http://www.w3.org/2000/svg"
   xmlns:svg="http://www.w3.org/2000/svg"
   xmlns:rdf="http://www.w3.org/1999/02/22-rdf-syntax-ns#"
   xmlns:cc="http://creativecommons.org/ns#">
  <defs
     id="defs94" />
  <sodipodi:namedview
     id="namedview92"
     pagecolor="#000000"
     bordercolor="#666666"
     borderopacity="1.0"
     inkscape:showpageshadow="2"
     inkscape:pageopacity="0"
     inkscape:pagecheckerboard="true"
     inkscape:deskcolor="#d1d1d1"
     showgrid="false"
     inkscape:zoom="0.59445781"
     inkscape:cx="-40.372924"
     inkscape:cy="185.88367"
     inkscape:window-width="1918"
     inkscape:window-height="1052"
     inkscape:window-x="0"
     inkscape:window-y="0"
     inkscape:window-maximized="1"
     inkscape:current-layer="svg90"
     showguides="true" />
  <path
     fill-rule="evenodd"
     fill="#000000"
     fill-opacity="1"
     d="M 286.99858,145.37446 145.22904,6.487736 6.3423304,148.18305 145.22904,287.14399 286.99858,145.37446"
     id="path2" />
  <path
     fill="none"
     stroke-width="0.216"
     stroke-linecap="butt"
     stroke-linejoin="miter"
     stroke="#000000"
     stroke-opacity="1"
     stroke-miterlimit="2.6131"
     d="M 286.99858,145.37446 145.22905,6.487736 6.3423304,148.18305 145.22905,287.14399 Z m 0,0"
     id="path4" />
  <path
     fill-rule="evenodd"
     fill="#006b05"
     fill-opacity="1"
     d="m 272.81498,145.37446 h 8.4961 L 145.22904,281.45649 v -8.4961 L 272.81498,145.37446"
     id="path6" />
  <path
     fill="none"
     stroke-width="0.216"
     stroke-linecap="butt"
     stroke-linejoin="miter"
     stroke="#000000"
     stroke-opacity="1"
     stroke-miterlimit="2.6131"
     d="m 272.81498,145.37446 h 8.4961 L 145.22905,281.45649 v -8.4961 z m 0,0"
     id="path8" />
  <path
     fill-rule="evenodd"
     fill="#007d17"
     fill-opacity="1"
     d="m 12.02983,148.18305 h 8.49609 l 124.70312,124.77734 v 8.4961 L 12.02983,148.18305"
     id="path10" />
  <path
     fill="none"
     stroke-width="0.216"
     stroke-linecap="butt"
     stroke-linejoin="miter"
     stroke="#000000"
     stroke-opacity="1"
     stroke-miterlimit="2.6131"
     d="m 12.02983,148.18305 h 8.49609 l 124.70313,124.77734 v 8.4961 z m 0,0"
     id="path12" />
  <path
     fill-rule="evenodd"
     fill="#66ff99"
     fill-opacity="1"
     d="m 145.22904,20.601016 v -8.42578 L 12.02983,148.18305 h 8.49609 L 145.22904,20.601016"
     id="path14" />
  <path
     fill="none"
     stroke-width="0.216"
     stroke-linecap="butt"
     stroke-linejoin="miter"
     stroke="#000000"
     stroke-opacity="1"
     stroke-miterlimit="2.6131"
     d="m 145.22905,20.601016 v -8.42578 L 12.02983,148.18305 h 8.49609 z m 0,0"
     id="path16" />
  <path
     fill-rule="evenodd"
     fill="#45ff02"
     fill-opacity="1"
     d="m 145.22904,12.175236 v 8.42578 L 272.81498,145.37446 h 8.4961 L 145.22904,12.175236"
     id="path18" />
  <path
     fill="none"
     stroke-width="0.216"
     stroke-linecap="butt"
     stroke-linejoin="miter"
     stroke="#000000"
     stroke-opacity="1"
     stroke-miterlimit="2.6131"
     d="m 145.22905,12.175236 v 8.42578 L 272.81498,145.37446 h 8.4961 z m 0,0"
     id="path20" />
  <path
     fill-rule="evenodd"
     fill="#009933"
     fill-opacity="1"
     d="M 145.22904,272.96039 272.81498,145.37446 145.22904,20.601016 20.52592,148.18305 145.22904,272.96039"
     id="path22" />
  <path
     fill="none"
     stroke-width="0.216"
     stroke-linecap="butt"
     stroke-linejoin="miter"
     stroke="#000000"
     stroke-opacity="1"
     stroke-miterlimit="2.6131"
     d="M 145.22905,272.96039 272.81498,145.37446 145.22905,20.601016 20.52592,148.18305 Z m 0,0"
     id="path24" />
  <path
     fill-rule="evenodd"
     fill="#000000"
     fill-opacity="1"
     d="m 171.72514,48.968206 8.49609,8.5664 -58.60547,59.472664 V 57.534606 h 5.6875 l 8.4961,-8.5664 v -22.60938 l -8.4961,-8.56641 H 32.83842 l -8.49609,8.56641 v 22.60938 l 8.49609,8.5664 h 6.62499 V 250.28071 L 49.8306,258.7768 H 79.135285 L 282.24467,48.968206 v -22.60938 l -8.49609,-8.56641 h -92.58985 l -9.43359,8.56641 v 22.60938"
     id="path26" />
  <path
     fill="none"
     stroke-width="0.216"
     stroke-linecap="butt"
     stroke-linejoin="miter"
     stroke="#000000"
     stroke-opacity="1"
     stroke-miterlimit="2.6131"
     d="m 171.72514,48.968206 8.49609,8.5664 -58.60547,59.472664 V 57.534606 h 5.6875 l 8.4961,-8.5664 v -22.60938 l -8.4961,-8.56641 H 32.83842 l -8.49609,8.56641 v 22.60938 l 8.49609,8.5664 h 6.62499 V 250.28071 L 49.8306,258.7768 H 79.135295 L 282.24467,48.968206 v -22.60938 l -8.49609,-8.56641 h -92.58985 l -9.43359,8.56641 z m 0,0"
     id="path28" />
  <path
     fill-rule="evenodd"
     fill="#ffffff"
     fill-opacity="1"
     d="m 35.647,51.847106 -5.68749,-5.6875 v -16.99219 l 5.68749,-5.6875 88.84767,-0.07031 5.61719,5.75781 -5.61719,2.73829 -2.87891,-2.73829 -85.96876,14.11329 v 8.5664"
     id="path30" />
  <path
     fill="none"
     stroke-width="0.216"
     stroke-linecap="butt"
     stroke-linejoin="miter"
     stroke="#000000"
     stroke-opacity="1"
     stroke-miterlimit="2.6131"
     d="m 35.647,51.847106 -5.68749,-5.6875 v -16.99219 l 5.68749,-5.6875 88.84767,-0.07031 5.61719,5.75781 -5.61719,2.73829 -2.87891,-2.73829 -85.96876,14.11329 z m 0,0"
     id="path32" />
  <path
     fill-rule="evenodd"
     fill="#ffffff"
     fill-opacity="1"
     d="m 52.63919,253.0893 -6.625,-5.6875 V 51.776796 l 6.625,-5.61719 V 253.0893"
     id="path34" />
  <path
     fill="none"
     stroke-width="0.216"
     stroke-linecap="butt"
     stroke-linejoin="miter"
     stroke="#000000"
     stroke-opacity="1"
     stroke-miterlimit="2.6131"
     d="m 52.63919,253.0893 -6.625,-5.6875 V 51.776796 l 6.625,-5.61719 z m 0,0"
     id="path36" />
  <path
     fill-rule="evenodd"
     fill="#ffffff"
     fill-opacity="1"
     d="m 194.40483,51.847106 5.6875,-5.6875 v 11.375 l -94.53516,96.335944 10.44141,-22.67969 78.40625,-79.343754"
     id="path38" />
  <path
     fill="none"
     stroke-width="0.216"
     stroke-linecap="butt"
     stroke-linejoin="miter"
     stroke="#000000"
     stroke-opacity="1"
     stroke-miterlimit="2.6131"
     d="m 194.40483,51.847106 5.6875,-5.6875 v 11.375 l -94.53516,96.335944 10.44141,-22.67969 z m 0,0"
     id="path40" />
  <path
     fill-rule="evenodd"
     fill="#7f7f7f"
     fill-opacity="1"
     d="m 54.5806,43.351016 -1.94141,2.80859 -6.625,5.6875 H 35.647 v -11.375 l 18.9336,2.87891"
     id="path42" />
  <path
     fill="none"
     stroke-width="0.216"
     stroke-linecap="butt"
     stroke-linejoin="miter"
     stroke="#000000"
     stroke-opacity="1"
     stroke-miterlimit="2.6131"
     d="m 54.5806,43.351016 -1.94141,2.80859 -6.625,5.6875 H 35.647 v -11.375 z m 0,0"
     id="path44" />
  <path
     fill-rule="evenodd"
     fill="#7f7f7f"
     fill-opacity="1"
     d="m 115.99858,51.847106 v 79.343754 l -10.44141,22.60938 V 46.089296 h 16.05859 l 2.87891,-2.80859 -2.87891,-14.11329 h 8.4961 v 16.99219 l -5.61719,5.6875 h -8.49609"
     id="path46" />
  <path
     fill="none"
     stroke-width="0.216"
     stroke-linecap="butt"
     stroke-linejoin="miter"
     stroke="#000000"
     stroke-opacity="1"
     stroke-miterlimit="2.6131"
     d="m 115.99858,51.847106 v 79.343754 l -10.44141,22.60938 V 46.089296 h 16.05859 l 2.87891,-2.80859 -2.87891,-14.11329 h 8.4961 v 16.99219 l -5.61719,5.6875 z m 0,0"
     id="path48" />
  <path
     fill-rule="evenodd"
     fill="#ffffff"
     fill-opacity="1"
     d="m 183.02983,51.847106 -5.61719,-5.6875 v -16.99219 l 6.55469,-5.6875 h 86.03906 l 6.625,5.6875 -9.50391,8.4961 -84.09765,5.61719 v 8.5664"
     id="path50" />
  <path
     fill="none"
     stroke-width="0.216"
     stroke-linecap="butt"
     stroke-linejoin="miter"
     stroke="#000000"
     stroke-opacity="1"
     stroke-miterlimit="2.6131"
     d="m 183.02983,51.847106 -5.61719,-5.6875 v -16.99219 l 6.55469,-5.6875 h 86.03906 l 6.625,5.6875 -9.50391,8.4961 -84.09765,5.61719 z m 0,0"
     id="path52" />
  <path
     fill-rule="evenodd"
     fill="#7f7f7f"
     fill-opacity="1"
     d="M 276.63139,46.159606 77.189975,253.0893 H 52.63919 v -8.49609 H 70.639195 L 270.00639,40.472106 267.12748,29.167416 h 9.50391 v 16.99219"
     id="path54" />
  <path
     fill="none"
     stroke-width="0.216"
     stroke-linecap="butt"
     stroke-linejoin="miter"
     stroke="#000000"
     stroke-opacity="1"
     stroke-miterlimit="2.6131"
     d="M 276.63139,46.159606 77.189975,253.0893 H 52.63919 v -8.49609 H 70.639195 L 270.00639,40.472106 267.12748,29.167416 h 9.50391 z m 0,0"
     id="path56" />
  <path
     fill-rule="evenodd"
     fill="#7f7f7f"
     fill-opacity="1"
     d="m 201.96733,43.351016 -1.94532,2.80859 -5.61718,5.6875 h -11.375 v -11.375 l 18.9375,2.87891"
     id="path58" />
  <path
     fill="none"
     stroke-width="0.216"
     stroke-linecap="butt"
     stroke-linejoin="miter"
     stroke="#000000"
     stroke-opacity="1"
     stroke-miterlimit="2.6131"
     d="m 201.96733,43.351016 -1.94532,2.80859 -5.61718,5.6875 h -11.375 v -11.375 z m 0,0"
     id="path60" />
  <path
     fill-rule="evenodd"
     fill="#cccccc"
     fill-opacity="1"
     d="M 105.55717,153.80024 V 46.089296 h 16.05859 l 2.87891,-2.80859 v -11.375 l -2.87891,-2.8086 H 38.4556 l -2.8086,2.8086 v 11.375 l 2.8086,2.80859 H 52.63919 V 244.59321 l 3.67189,2.80859 H 72.510285 L 270.93998,40.472106 v -8.13672 l -2.8789,-3.23828 h -82.15235 l -2.8789,2.8086 v 11.44531 l 2.8789,2.80859 h 14.1836 v 11.375 l -94.53516,96.265634"
     id="path62" />
  <path
     fill="none"
     stroke-width="0.216"
     stroke-linecap="butt"
     stroke-linejoin="miter"
     stroke="#000000"
     stroke-opacity="1"
     stroke-miterlimit="2.6131"
     d="M 105.55717,153.80024 V 46.089296 h 16.05859 l 2.87891,-2.80859 v -11.375 l -2.87891,-2.8086 H 38.4556 l -2.8086,2.8086 v 11.375 l 2.8086,2.80859 H 52.63919 V 244.59321 l 3.67189,2.80859 H 72.510295 L 270.93998,40.472106 v -8.13672 l -2.8789,-3.23828 h -82.15235 l -2.8789,2.8086 v 11.44531 l 2.8789,2.80859 h 14.1836 v 11.375 z m 0,0"
     id="path64" />
  <path
     fill-rule="evenodd"
     fill="#000000"
     fill-opacity="1"
     d="m 157.11186,153.94477 6.62109,-5.6875 h 16.99219 l 4.7539,5.6875 -5.6875,16.99219 -6.55468,5.6875 h -16.99219 l -4.82422,-5.6875 5.69141,-16.99219"
     id="path66" />
  <path
     fill="none"
     stroke-width="0.216"
     stroke-linecap="butt"
     stroke-linejoin="miter"
     stroke="#000000"
     stroke-opacity="1"
     stroke-miterlimit="2.6131"
     d="m 157.11186,153.94477 6.62109,-5.6875 h 16.99219 l 4.75391,5.6875 -5.6875,16.99219 -6.55469,5.6875 h -16.99219 l -4.82422,-5.6875 z m 0,0"
     id="path68" />
  <path
     fill-rule="evenodd"
     fill="#000000"
     fill-opacity="1"
     d="m 176.98295,179.43305 -17.35156,51.62109 h 5.90234 l -5.61719,16.41797 h -33.98437 l 16.99219,-50.97656 h -5.6875 z m -39.74609,17.0625 5.6875,-17.0625 h 34.05859"
     id="path78" />
  <path
     fill="none"
     stroke-width="0.216"
     stroke-linecap="butt"
     stroke-linejoin="miter"
     stroke="#000000"
     stroke-opacity="1"
     stroke-miterlimit="2.6131"
     d="m 176.98295,179.43305 -17.35156,51.62109 h 5.90234 l -5.61718,16.41797 h -33.98438 l 16.99219,-50.97656 h -5.6875 z m -39.74609,17.0625 5.6875,-17.0625 h 34.05859 z m 0,0"
     id="path80" />
  <path
     fill-rule="evenodd"
     fill="#cccccc"
     fill-opacity="1"
     d="m 156.17436,241.78461 1.87109,-5.61719 h -5.6875 l 17.0625,-51.04687 h -23.61328 l -1.94531,5.6875 h 6.625 l -16.99219,50.97656 h 22.67969"
     id="path82" />
  <path
     fill="none"
     stroke-width="0.216"
     stroke-linecap="butt"
     stroke-linejoin="miter"
     stroke="#000000"
     stroke-opacity="1"
     stroke-miterlimit="2.6131"
     d="m 156.17436,241.78461 1.87109,-5.61719 h -5.6875 l 17.0625,-51.04687 h -23.61328 l -1.94531,5.6875 h 6.625 l -16.99219,50.97656 z m 0,0"
     id="path84" />
  <path
     fill-rule="evenodd"
     fill="#cccccc"
     fill-opacity="1"
     d="m 175.03764,168.12836 3.8164,-11.375 -1.87109,-2.80859 h -11.37891 l -3.74218,2.80859 -3.81641,11.375 1.94531,2.8086 h 11.375 l 3.67188,-2.8086"
     id="path86" />
  <path
     fill="none"
     stroke-width="0.216"
     stroke-linecap="butt"
     stroke-linejoin="miter"
     stroke="#000000"
     stroke-opacity="1"
     stroke-miterlimit="2.6131"
     d="m 175.03764,168.12836 3.81641,-11.375 -1.8711,-2.80859 h -11.3789 l -3.74219,2.80859 -3.81641,11.375 1.94531,2.8086 h 11.375 z m 0,0"
     id="path88" />
  <path
     id="path493"
     d="m 145.12105,3.351756 -14.35902,15.04299 -3.64332,-3.13068 -95.14506,0.02453 -10.24594,10.5368 0.37859,24.25036 10.12472,9.92392 4.706,-0.04864 -0.02241,53.431474 -33.6136696,34.90854 33.8076696,34.16602 0.11766,69.49491 12.77848,9.39412 30.239326,-0.0947 17.450365,-17.98769 47.426609,47.20537 40.56564,-40.57937 17.81484,-19.67804 55.18975,-53.17338 31.53774,-31.77188 -50.09943,-49.416182 44.49212,-45.632922 -0.20078,-24.97419 -9.6044,-9.82358 -93.93351,-0.07841 -10.80655,9.81509 0.0353,2.3864 z"
     style="fill:none;stroke:#ffffff;stroke-width:4.72441;stroke-dasharray:none;stroke-opacity:1"
     sodipodi:nodetypes="cccccccccccccccccccccccccccc" />
  <text
     x="169.76843"
     y="239.7726"
     font-family="'Arial Black', Impact, 'Helvetica Neue', sans-serif"
     font-weight="900"
     font-size="62px"
     letter-spacing="-1"
     fill="#cccccc"
     stroke="#000000"
     stroke-width="3"
     paint-order="stroke fill"
     id="text1">-tabs</text>
  <metadata
     id="metadata22224">
    <rdf:RDF>
      <cc:Work
         rdf:about="">
        <cc:license
           rdf:resource="https://raw.githubusercontent.com/vim/vim/master/LICENSE" />
      </cc:Work>
    </rdf:RDF>
  </metadata>
</svg>
